<?xml version="1.0" encoding="utf-8"?>
<!-- Generator: Adobe Illustrator 19.2.1, SVG Export Plug-In . SVG Version: 6.00 Build 0)  -->
<svg version="1.1" id="Layer_1" xmlns="http://www.w3.org/2000/svg" xmlns:xlink="http://www.w3.org/1999/xlink" x="0px" y="0px"
	 viewBox="0 0 300 300" style="enable-background:new 0 0 300 300;" xml:space="preserve">
<style type="text/css">
	.st0{clip-path:url(#SVGID_2_);fill:#FFFFFF;}
</style>
<g>
	<defs>
		<rect id="SVGID_1_" x="1.5" y="1.5" width="297" height="297"/>
	</defs>
	<clipPath id="SVGID_2_">
		<use xlink:href="#SVGID_1_"  style="overflow:visible;"/>
	</clipPath>
	<path class="st0" d="M196.4,58.5l46.4,46.4l13.2-13.2l-22.6-22.6c-4.9-4.9-7-9.8-6.4-14.7c0.6-4.9,4.2-10.2,8.9-14.1l0.3-0.3
		l-10.8-10.8c-1,0.5-2.8,2.1-4.1,3.4c-2.9,2.9-4.8,6.2-5.4,9.4c-0.5,3.2-0.2,6.9,0.9,11l-0.3,0.3l-7.4-7.4L196.4,58.5z M173.6,117.7
		c-2.5-3.7-3.7-7.3-3.7-10.9c0-3.6,1.8-7.1,5.3-10.6c3-3,6.4-4.6,10.2-4.7c3.7-0.1,7.2,1.3,10.3,4L173.6,117.7z M176.8,143.8
		c4.1,1.9,8.4,2.8,12.8,2.8c4.4,0,8.8-1,13.3-2.9c4.5-1.9,8.8-5,12.9-9.1c3.2-3.2,5.6-6.4,7.4-9.8c1.8-3.4,2.9-6.7,3.4-10
		c0.5-3.3,0.5-6.5-0.2-9.5c-0.6-3-1.8-5.8-3.4-8.3l-13,13c1,2.5,1.3,5,0.8,7.5c-0.5,2.6-2.1,5.2-4.7,7.7c-3.7,3.7-7.7,5.6-11.8,5.7
		c-4.1,0.1-8.3-1.5-12.4-4.6l36-36c-4.2-4.2-8.5-7.4-12.9-9.7c-4.5-2.3-9-3.7-13.5-4.1c-4.5-0.4-9,0.2-13.4,1.9
		c-4.4,1.7-8.6,4.5-12.6,8.5c-3.6,3.6-6.3,7.6-8,11.8c-1.7,4.3-2.6,8.6-2.6,12.9c0,4.3,0.9,8.6,2.7,12.8c1.8,4.2,4.4,8,7.8,11.4
		C168.8,139.2,172.6,141.9,176.8,143.8 M113.5,124.2l55,55l15-15l-55-55L113.5,124.2z M90.6,147.1l55,55l15-15l-55-55L90.6,147.1z
		 M66.9,194.8l28.9,12l-0.6,16.3l-16.3,0.6L66.9,194.8z M50,187.6l-6,6l32.8,77.2l15.7-15.7l-6.9-16.2l25.3,0l0-25.3l16.2,6.9
		l15.7-15.7L65.7,172l-6,6L50,187.6z M276.6,277.9H23.4V22.1h253.3V277.9z M298.5,1.5H1.5v297h297V1.5z"/>
</g>
</svg>
